<svg width="24" height="24" viewBox="0 0 24 24" fill="none" xmlns="http://www.w3.org/2000/svg">
<circle cx="12" cy="12" r="11" stroke="#D8E6F1" stroke-width="2"/>
<path d="M12.1758 10.3574C12.9023 10.3574 13.543 10.6445 14.0977 11.2188C14.6562 11.7891 14.9355 12.4629 14.9355 13.2402C14.9355 14.0254 14.6426 14.7012 14.0566 15.2676C13.4746 15.834 12.7676 16.1172 11.9355 16.1172C11.1035 16.1172 10.3945 15.834 9.80859 15.2676C9.22656 14.7012 8.93555 14.0254 8.93555 13.2402C8.93555 12.9199 8.99219 12.5996 9.10547 12.2793C9.21875 11.959 9.33008 11.7188 9.43945 11.5586L9.59766 11.3184L12 7.59766H13.3184L11.4551 10.4805C11.6543 10.3984 11.8945 10.3574 12.1758 10.3574ZM13.2129 14.4707C13.5645 14.1309 13.7402 13.7207 13.7402 13.2402C13.7402 12.7598 13.5645 12.3496 13.2129 12.0098C12.8652 11.6699 12.4395 11.5 11.9355 11.5C11.4316 11.5 11.0059 11.6699 10.6582 12.0098C10.3105 12.3496 10.1367 12.7598 10.1367 13.2402C10.1367 13.7207 10.3105 14.1309 10.6582 14.4707C11.0059 14.8105 11.4316 14.9805 11.9355 14.9805C12.4395 14.9805 12.8652 14.8105 13.2129 14.4707Z" fill="#D8E6F1"/>
</svg>
